<svg id="logo" xmlns="http://www.w3.org/2000/svg" xmlns:xlink="http://www.w3.org/1999/xlink" viewBox="0 0 120.67 26.25"><defs><style>.cls-1{fill:url(#linear-gradient);}.cls-2{fill:#ec008c;}.cls-3{fill:#fff;}</style><linearGradient id="linear-gradient" x1="4.79" y1="20.21" x2="39.6" y2="20.21" gradientTransform="matrix(1, 0, 0, -1, 0, 38)" gradientUnits="userSpaceOnUse"><stop offset="0.02" stop-color="#fdb515"/><stop offset="0.1" stop-color="#fca91d"/><stop offset="0.26" stop-color="#f98932"/><stop offset="0.47" stop-color="#f45454"/><stop offset="0.73" stop-color="#ed0d83"/><stop offset="0.77" stop-color="#ec008c"/></linearGradient></defs><title>amdocswhite</title><path class="cls-1" d="M23.58,4.66H8.17L9.69,9.91H23.58a2.63,2.63,0,0,1,2.63,2.63v2.63H13.08a7.87,7.87,0,0,0,0,15.75h10.5A7.88,7.88,0,0,0,31.45,23V12.53A7.88,7.88,0,0,0,23.58,4.66ZM26.2,23a2.63,2.63,0,0,1-2.62,2.63H13.08a2.63,2.63,0,0,1,0-5.25H26.2Z" transform="translate(-5.21 -4.66)"/><polygon class="cls-2" points="33.75 10.5 28.97 10.5 28.97 15.75 35.27 15.75 33.75 10.5"/><path class="cls-3" d="M58.11,23.08H55.81V21.81a4,4,0,0,1-3.3,1.54,5.28,5.28,0,0,1-5.26-5.53,5.28,5.28,0,0,1,5.26-5.53,4,4,0,0,1,3.3,1.55V12.56h2.29Zm-8.5-5.26a3.18,3.18,0,1,0,6.34,0,3.18,3.18,0,1,0-6.34,0Z" transform="translate(-5.21 -4.66)"/><path class="cls-3" d="M77.87,16.47v6.61H75.57V17.23c0-1.77-.91-2.76-2.45-2.76a2.6,2.6,0,0,0-2.72,2.78v5.83H68.09V17.22c0-1.77-.91-2.76-2.45-2.76a2.61,2.61,0,0,0-2.72,2.78v5.83H60.62V12.56H62.9v1.28a3.73,3.73,0,0,1,3.23-1.56,4.14,4.14,0,0,1,3.63,1.88,4.27,4.27,0,0,1,3.84-1.88A4.05,4.05,0,0,1,77.87,16.47Z" transform="translate(-5.21 -4.66)"/><path class="cls-3" d="M104.09,17.82a5.66,5.66,0,1,1-5.66-5.53A5.46,5.46,0,0,1,104.09,17.82Zm-9,0a3.3,3.3,0,1,0,6.6,0,3.3,3.3,0,1,0-6.6,0Z" transform="translate(-5.21 -4.66)"/><path class="cls-3" d="M115.16,14l-1.47,1.57a3.53,3.53,0,0,0-2.52-1.09,3.14,3.14,0,0,0-3.11,3.37,3.14,3.14,0,0,0,3.11,3.37,3.83,3.83,0,0,0,2.58-1.1l1.42,1.58a5.06,5.06,0,0,1-3.93,1.68,5.3,5.3,0,0,1-5.53-5.53,5.3,5.3,0,0,1,5.53-5.53A5,5,0,0,1,115.16,14Z" transform="translate(-5.21 -4.66)"/><path class="cls-3" d="M124.63,15.19a6.77,6.77,0,0,0-3.25-.9c-1.25,0-2,.5-2,1.25s.77.94,1.73,1.09l1.09.16c2.29.33,3.65,1.31,3.65,3.11,0,2-1.76,3.43-4.78,3.43A7.72,7.72,0,0,1,116.58,22l1.06-1.72a5.28,5.28,0,0,0,3.47,1.08c1.57,0,2.39-.49,2.39-1.28,0-.59-.57-1-1.82-1.16l-1.1-.14c-2.33-.32-3.57-1.4-3.57-3.09,0-2.09,1.67-3.37,4.35-3.37a8,8,0,0,1,4.26,1.11Z" transform="translate(-5.21 -4.66)"/><path class="cls-3" d="M88.39,13.83V10l2.29-.81V23.08H88.39V21.81a4,4,0,0,1-3.31,1.54,5.28,5.28,0,0,1-5.26-5.53,5.28,5.28,0,0,1,5.26-5.53A4,4,0,0,1,88.39,13.83Zm-6.2,4a3.18,3.18,0,1,0,6.35,0,3.18,3.18,0,1,0-6.35,0Z" transform="translate(-5.21 -4.66)"/></svg>